P3
1 3
255
0 0 0
0 0 255
135 206 235
